<?xml version="1.0" standalone="no"?>
<!DOCTYPE svg PUBLIC "-//W3C//DTD SVG 20010904//EN"
 "http://www.w3.org/TR/2001/REC-SVG-20010904/DTD/svg10.dtd">
<svg version="1.0" xmlns="http://www.w3.org/2000/svg"
 width="3022.000000pt" height="1700.000000pt" viewBox="0 0 3022.000000 1700.000000"
 preserveAspectRatio="xMidYMid meet">

<g transform="translate(0.000000,1700.000000) scale(0.100000,-0.100000)"
fill="#000000" stroke="none">
<path d="M4800 16615 l0 -385 12710 0 12710 0 0 385 0 385 -12710 0 -12710 0
0 -385z m20500 20 c0 -138 -1 -145 -20 -145 -19 0 -20 7 -20 145 0 138 1 145
20 145 19 0 20 -7 20 -145z m750 120 c0 -18 -5 -25 -20 -25 -15 0 -20 7 -20
25 0 18 5 25 20 25 15 0 20 -7 20 -25z m679 -87 c19 -60 38 -108 42 -108 3 0
23 50 44 110 36 106 38 110 66 110 l29 0 0 -145 c0 -138 -1 -145 -20 -145 -18
0 -20 8 -22 108 l-3 107 -33 -95 c-39 -113 -44 -123 -67 -118 -13 2 -28 34
-54 108 l-36 105 -3 -107 c-2 -100 -4 -108 -22 -108 -19 0 -20 8 -20 146 l0
145 32 -3 c31 -3 33 -6 67 -110z m2531 -35 l59 -143 -25 0 c-21 0 -29 8 -41
40 l-16 41 -60 -3 c-59 -3 -61 -4 -72 -38 -8 -24 -19 -36 -33 -38 -12 -2 -22
0 -22 5 0 4 23 70 52 146 48 128 54 138 76 135 21 -3 32 -22 82 -145z m-360
102 c0 -24 5 -35 15 -35 8 0 15 -7 15 -15 0 -8 -7 -15 -15 -15 -12 0 -15 -15
-15 -71 0 -62 2 -71 20 -76 11 -3 20 -11 20 -18 0 -19 -36 -28 -60 -15 -18 9
-20 20 -20 95 0 69 -3 85 -15 85 -8 0 -15 7 -15 15 0 8 7 15 15 15 10 0 15 10
15 29 0 26 9 38 33 40 4 1 7 -15 7 -34z m-3412 -36 c39 -13 52 -49 52 -140 0
-67 -1 -69 -25 -69 -25 0 -25 1 -25 79 0 85 -12 108 -50 96 -28 -9 -40 -44
-40 -116 0 -52 -2 -59 -20 -59 -19 0 -20 7 -20 105 0 98 1 105 20 105 11 0 20
-4 20 -9 0 -6 12 -3 28 5 32 17 23 16 60 3z m750 -15 c27 -17 30 -54 4 -54 -9
0 -23 9 -30 20 -27 44 -82 10 -82 -52 0 -22 5 -48 10 -59 18 -33 78 -19 92 23
7 21 37 1 31 -21 -14 -53 -99 -75 -142 -37 -41 37 -50 125 -17 165 17 21 68
41 91 34 11 -3 30 -11 43 -19z m220 -24 c12 -18 22 -44 22 -56 0 -23 -3 -24
-75 -24 -58 0 -75 -3 -75 -14 0 -42 70 -62 92 -26 22 34 66 23 47 -11 -15 -30
-67 -52 -104 -45 -100 19 -112 181 -16 212 47 15 82 4 109 -36z m666 20 c5 -5
12 -50 14 -100 4 -86 4 -90 -17 -90 -11 0 -21 4 -21 9 0 5 -18 2 -40 -6 -49
-20 -97 -4 -106 34 -12 45 13 71 78 84 44 9 58 16 58 29 0 34 -63 41 -82 10
-16 -26 -48 -26 -48 -1 0 51 121 74 164 31z m226 -10 c6 -10 10 -55 10 -99 0
-74 -2 -81 -20 -81 -18 0 -20 7 -20 63 0 34 -3 72 -6 84 -8 27 -36 38 -64 23
-18 -9 -20 -20 -20 -90 0 -79 0 -80 -25 -80 l-25 0 0 105 c0 98 1 105 20 105
11 0 20 -5 20 -11 0 -8 4 -8 13 -1 31 26 99 15 117 -18z m213 8 c12 -15 17
-38 17 -88 0 -38 3 -75 6 -84 5 -13 -1 -15 -32 -14 -22 0 -55 -2 -74 -7 -46
-9 -82 18 -82 60 0 38 30 61 92 70 50 7 61 20 38 43 -18 18 -56 14 -75 -8 -20
-23 -53 -27 -53 -7 0 8 10 23 23 34 39 37 108 37 140 1z m217 19 c19 5 20 1
20 -118 -1 -86 -5 -129 -14 -141 -32 -43 -122 -46 -151 -5 -8 12 -15 25 -15
29 0 14 37 9 50 -7 26 -31 90 -13 90 26 0 14 -7 16 -43 12 -36 -4 -46 -1 -70
22 -32 33 -40 103 -15 148 14 27 66 46 99 37 16 -5 37 -6 49 -3z m226 -18 c12
-9 34 -69 34 -91 0 -4 -36 -8 -80 -10 l-79 -3 12 -25 c17 -34 70 -40 89 -11
13 21 48 29 48 12 0 -23 -15 -43 -41 -56 -36 -19 -53 -19 -94 0 -38 19 -55 51
-55 105 0 44 37 97 73 102 27 5 74 -7 93 -23z m196 17 c24 -13 32 -13 57 0 34
17 74 6 90 -25 6 -11 11 -56 11 -100 0 -74 -2 -81 -20 -81 -18 0 -20 7 -20 74
0 54 -4 79 -16 90 -18 19 -20 19 -45 6 -16 -9 -19 -22 -19 -90 0 -78 -1 -80
-25 -80 -24 0 -24 2 -27 87 -3 73 -6 88 -20 91 -9 2 -26 -6 -37 -17 -17 -17
-21 -34 -21 -91 0 -63 -2 -70 -20 -70 -19 0 -20 7 -20 105 0 98 1 105 20 105
11 0 20 -4 20 -9 0 -6 12 -3 28 5 33 17 31 17 64 0z m363 -28 c14 -17 25 -42
25 -59 l0 -29 -75 0 c-79 0 -89 -7 -58 -42 21 -24 55 -23 78 2 18 20 55 28 55
11 0 -19 -42 -60 -69 -66 -37 -8 -96 16 -112 46 -17 33 -14 102 6 133 18 28
65 45 103 38 12 -2 33 -18 47 -34z m218 14 c14 -12 17 -32 17 -104 0 -81 -2
-88 -20 -88 -18 0 -20 7 -20 80 0 76 -1 81 -25 92 -21 9 -28 8 -45 -7 -17 -15
-20 -31 -20 -92 0 -66 -2 -73 -20 -73 -19 0 -20 7 -20 106 l0 107 28 -6 c15
-2 36 -1 47 3 24 9 55 2 78 -18z m722 -15 c22 -32 19 -119 -5 -150 -24 -30
-60 -40 -94 -27 -26 9 -26 9 -26 -35 0 -38 -3 -45 -20 -45 -19 0 -20 7 -20
144 l0 145 40 -1 c23 0 43 2 46 5 10 10 64 -15 79 -36z m215 6 c43 -55 31
-142 -25 -179 -21 -14 -32 -15 -61 -6 l-34 10 0 -44 c0 -37 -3 -44 -20 -44
-19 0 -20 7 -20 145 0 138 1 145 20 145 11 0 20 -4 20 -9 0 -6 11 -4 25 3 34
18 71 9 95 -21z m-4090 -43 c13 -38 27 -70 31 -70 3 0 17 32 30 70 20 59 27
70 46 70 l22 0 -28 -77 c-52 -139 -49 -135 -73 -131 -14 2 -25 15 -33 38 -7
19 -24 65 -38 103 l-26 67 22 0 c19 0 27 -11 47 -70z m314 39 c66 -78 3 -205
-92 -184 -51 11 -77 49 -77 112 0 48 4 58 28 79 20 17 40 24 72 24 36 0 47 -5
69 -31z m106 -74 c0 -98 -1 -105 -20 -105 -19 0 -20 7 -20 105 0 98 1 105 20
105 19 0 20 -7 20 -105z"/>
<path d="M29158 16676 c-10 -29 -18 -56 -18 -59 0 -4 18 -7 41 -7 45 0 45 1
10 82 l-16 38 -17 -54z"/>
<path d="M26346 16654 c-26 -26 -18 -34 34 -34 54 0 69 19 31 40 -27 14 -47
13 -65 -6z"/>
<path d="M27045 16578 c-63 -14 -71 -58 -10 -58 36 0 58 19 53 48 -3 16 -8 17
-43 10z"/>
<path d="M27492 16580 c-41 -10 -57 -24 -49 -44 10 -25 63 -20 81 6 17 24 21
49 9 47 -5 -1 -23 -5 -41 -9z"/>
<path d="M27677 16652 c-24 -26 -22 -87 3 -112 24 -24 29 -24 58 -4 17 12 22
25 22 58 0 66 -47 98 -83 58z"/>
<path d="M27908 16659 c-36 -21 -21 -39 32 -39 54 0 61 7 32 33 -21 19 -39 21
-64 6z"/>
<path d="M28457 16652 c-26 -28 -22 -32 39 -32 56 0 56 0 42 23 -20 29 -59 33
-81 9z"/>
<path d="M29397 16652 c-22 -24 -22 -95 -1 -116 37 -38 84 -4 84 61 0 63 -48
94 -83 55z"/>
<path d="M29616 16648 c-22 -31 -20 -91 2 -111 41 -38 82 -9 82 58 0 69 -51
101 -84 53z"/>
<path d="M25843 16662 c-31 -20 -37 -96 -10 -129 13 -17 62 -16 76 0 49 60 -6
167 -66 129z"/>
<path d="M660 15307 c-28 -14 -39 -59 -20 -81 6 -8 32 -19 58 -26 55 -14 72
-26 72 -51 0 -43 -79 -52 -114 -14 -26 28 -36 31 -36 11 0 -25 50 -56 89 -56
48 0 81 24 81 58 0 40 -11 50 -70 70 -64 22 -84 46 -56 68 28 20 62 18 86 -6
24 -24 30 -25 30 -6 0 20 -39 46 -70 46 -14 0 -36 -6 -50 -13z"/>
<path d="M1460 15205 c0 -70 4 -115 10 -115 6 0 10 26 10 58 0 44 5 63 18 75
44 40 72 10 72 -77 0 -31 5 -56 10 -56 15 0 12 123 -3 144 -14 19 -40 23 -74
12 -21 -7 -23 -4 -23 33 0 23 -4 41 -10 41 -6 0 -10 -45 -10 -115z"/>
<path d="M1730 15206 c0 -66 4 -116 9 -116 6 0 11 21 13 48 l3 47 58 5 c82 7
110 49 69 100 -14 17 -32 23 -85 27 l-67 6 0 -117z m114 84 c18 -6 26 -17 26
-33 0 -35 -19 -47 -72 -47 l-48 0 0 38 c0 21 3 42 7 45 9 10 58 8 87 -3z"/>
<path d="M2226 15313 c-11 -11 -6 -23 9 -23 8 0 15 4 15 9 0 13 -16 22 -24 14z"/>
<path d="M2640 15276 c0 -13 -6 -27 -12 -29 -10 -4 -10 -6 0 -6 8 -1 12 -22
12 -70 0 -62 2 -70 21 -76 27 -9 39 4 16 16 -25 14 -25 125 1 132 16 4 16 5 0
6 -12 1 -18 9 -18 26 0 14 -4 25 -10 25 -5 0 -10 -11 -10 -24z"/>
<path d="M873 15250 c-28 -11 -43 -40 -43 -83 0 -40 34 -77 72 -77 29 0 77 34
66 46 -5 4 -16 0 -26 -9 -23 -21 -56 -22 -76 -1 -32 32 -20 44 44 44 56 0 60
1 60 23 0 42 -55 74 -97 57z m61 -26 c27 -26 18 -34 -35 -34 -51 0 -53 3 -26
38 13 17 42 15 61 -4z"/>
<path d="M1048 15248 c-26 -9 -40 -38 -18 -38 6 0 10 4 10 9 0 14 37 23 60 16
11 -3 20 -15 20 -25 0 -14 -10 -21 -37 -26 -55 -10 -73 -22 -73 -47 0 -44 45
-61 93 -36 16 9 22 9 25 0 2 -6 8 -11 12 -11 10 0 1 141 -9 151 -13 13 -57 17
-83 7z m61 -124 c-19 -23 -74 -14 -74 11 0 14 11 22 40 31 36 10 40 9 43 -8 2
-11 -2 -26 -9 -34z"/>
<path d="M1231 15244 c-12 -9 -21 -11 -21 -5 0 6 -4 11 -10 11 -6 0 -10 -33
-10 -80 0 -63 3 -80 15 -80 11 0 15 16 17 67 3 59 6 68 23 71 28 5 39 18 22
25 -8 3 -24 -1 -36 -9z"/>
<path d="M1332 15250 c-43 -18 -55 -91 -21 -134 34 -43 110 -28 108 22 0 14
-3 13 -16 -5 -32 -47 -87 -20 -87 42 0 58 38 82 76 48 21 -19 38 -9 17 11 -20
20 -51 26 -77 16z"/>
<path d="M1982 15244 c-13 -9 -22 -11 -22 -5 0 6 -4 11 -10 11 -6 0 -10 -33
-10 -80 0 -47 4 -80 10 -80 6 0 10 20 10 44 0 61 15 96 40 96 11 0 20 4 20 9
0 18 -17 20 -38 5z"/>
<path d="M2090 15253 c-35 -13 -50 -37 -50 -79 0 -72 62 -108 118 -68 29 20
32 102 5 126 -22 19 -53 28 -73 21z m52 -30 c38 -35 16 -113 -32 -113 -48 0
-69 72 -33 112 20 22 41 23 65 1z"/>
<path d="M2333 15250 c-28 -11 -43 -40 -43 -83 0 -40 34 -77 72 -77 29 0 77
34 66 46 -5 4 -16 0 -26 -9 -23 -21 -56 -22 -76 -1 -32 32 -20 44 44 44 56 0
60 1 60 23 0 42 -55 74 -97 57z m61 -26 c27 -26 18 -34 -35 -34 -51 0 -53 3
-26 38 13 17 42 15 61 -4z"/>
<path d="M2520 15253 c-35 -13 -50 -37 -50 -80 0 -51 26 -83 68 -83 29 0 62
26 62 48 0 18 -14 14 -28 -8 -16 -26 -58 -26 -72 -1 -36 68 20 141 72 94 22
-19 33 -13 15 9 -14 19 -46 28 -67 21z"/>
<path d="M2751 15249 c-51 -19 -37 -66 25 -84 28 -8 39 -16 39 -30 0 -27 -54
-34 -71 -10 -7 9 -18 15 -25 13 -9 -3 -6 -11 9 -26 38 -38 112 -23 112 22 0
28 -13 39 -63 56 -27 8 -37 17 -35 28 4 23 42 27 62 6 19 -18 32 -13 23 9 -7
18 -47 26 -76 16z"/>
<path d="M2218 15148 c-2 -76 -6 -102 -15 -100 -7 1 -13 -2 -13 -8 0 -5 9 -10
20 -10 29 0 40 37 40 136 0 67 -3 84 -15 84 -11 0 -15 -20 -17 -102z"/>
<path d="M5630 15110 c0 -60 4 -100 10 -100 6 0 10 40 10 100 0 60 -4 100 -10
100 -6 0 -10 -40 -10 -100z"/>
<path d="M5700 15110 c0 -121 18 -135 22 -18 l3 82 54 -82 c29 -45 57 -82 62
-82 5 0 9 45 9 100 0 118 -18 136 -22 23 l-3 -77 -50 77 c-27 42 -56 77 -62
77 -10 0 -13 -27 -13 -100z"/>
<path d="M5890 15203 c0 -23 75 -193 84 -190 12 4 87 189 80 196 -8 8 -15 -7
-48 -94 -18 -48 -35 -84 -38 -79 -3 5 -18 46 -32 92 -15 45 -32 82 -37 82 -5
0 -9 -3 -9 -7z"/>
<path d="M6135 15198 c-33 -19 -44 -41 -44 -88 0 -48 11 -70 46 -88 34 -19 69
-14 100 12 24 21 28 32 28 76 0 44 -4 55 -28 76 -30 26 -70 30 -102 12z m81
-16 c37 -24 43 -87 13 -126 -27 -34 -81 -36 -103 -4 -21 30 -20 96 1 120 16
18 68 24 89 10z"/>
<path d="M6310 15110 c0 -60 4 -100 10 -100 6 0 10 40 10 100 0 60 -4 100 -10
100 -6 0 -10 -40 -10 -100z"/>
<path d="M6408 15180 c-28 -28 -30 -36 -25 -78 9 -84 89 -121 144 -66 31 31
22 46 -10 16 -28 -26 -79 -29 -98 -5 -8 9 -14 37 -14 63 0 26 6 54 14 63 17
22 69 22 93 0 10 -9 21 -13 26 -9 12 13 -38 46 -70 46 -20 0 -40 -10 -60 -30z"/>
<path d="M6590 15110 l0 -100 70 0 c40 0 70 4 70 10 0 6 -27 10 -61 10 l-60 0
3 38 3 37 55 6 55 6 -57 1 -58 2 0 35 0 35 60 0 c33 0 60 4 60 10 0 6 -30 10
-70 10 l-70 0 0 -100z"/>
<path d="M6790 15190 c-11 -11 -20 -24 -20 -28 0 -21 29 -44 70 -56 52 -15 70
-37 51 -60 -19 -23 -78 -21 -93 4 -15 23 -28 26 -28 6 0 -17 43 -46 69 -46 31
0 70 21 76 41 10 31 -13 58 -60 70 -54 14 -73 32 -55 54 17 21 77 19 89 -2 5
-10 13 -14 18 -10 13 13 -36 47 -68 47 -16 0 -38 -9 -49 -20z"/>
<path d="M7600 15110 l0 -100 75 0 c43 0 75 4 75 10 0 6 -29 10 -66 10 l-65 0
3 38 3 37 55 6 55 6 -57 1 -58 2 0 35 0 35 60 0 c33 0 60 4 60 10 0 6 -30 10
-70 10 l-70 0 0 -100z"/>
<path d="M7790 15110 l0 -100 60 0 c33 0 60 4 60 10 0 6 -22 10 -50 10 l-50 0
0 90 c0 53 -4 90 -10 90 -6 0 -10 -40 -10 -100z"/>
<path d="M7950 15110 l0 -100 70 0 c40 0 70 4 70 10 0 6 -27 10 -60 10 l-60 0
0 40 0 39 58 4 57 3 -57 2 -58 2 0 35 0 35 55 0 c30 0 55 5 55 10 0 6 -28 10
-65 10 l-65 0 0 -100z"/>
<path d="M8130 15110 c0 -124 18 -134 22 -12 l3 87 30 -88 c16 -48 33 -86 39
-84 5 2 21 35 35 74 14 39 29 75 34 79 4 4 7 -29 7 -74 0 -48 4 -82 10 -82 6
0 10 40 10 101 0 90 -2 100 -17 97 -12 -2 -27 -29 -46 -83 -15 -43 -29 -81
-31 -83 -3 -2 -17 35 -32 82 -21 66 -32 86 -46 86 -16 0 -18 -10 -18 -100z"/>
<path d="M8370 15110 l0 -100 70 0 c40 0 70 4 70 10 0 6 -27 10 -60 10 l-60 0
0 40 0 39 58 4 57 3 -57 2 -58 2 0 35 0 35 55 0 c30 0 55 5 55 10 0 6 -28 10
-65 10 l-65 0 0 -100z"/>
<path d="M8550 15110 c0 -121 18 -135 22 -18 l3 82 54 -82 c29 -45 57 -82 62
-82 5 0 9 45 9 100 0 118 -18 136 -22 23 l-3 -77 -50 77 c-27 42 -56 77 -62
77 -10 0 -13 -27 -13 -100z"/>
<path d="M8740 15200 c0 -5 16 -10 35 -10 l35 0 0 -90 c0 -53 4 -90 10 -90 6
0 10 37 10 90 l0 90 30 0 c17 0 30 5 30 10 0 6 -32 10 -75 10 -43 0 -75 -4
-75 -10z"/>
<path d="M8952 15203 c-7 -2 -17 -13 -22 -24 -17 -30 4 -55 61 -74 28 -9 53
-23 56 -31 16 -41 -75 -63 -99 -24 -15 23 -28 26 -28 6 0 -20 39 -46 67 -46
58 0 101 51 73 85 -7 9 -32 20 -56 26 -53 14 -72 32 -54 54 17 21 77 19 89 -2
5 -10 13 -14 18 -10 4 5 -3 17 -16 28 -22 18 -61 23 -89 12z"/>
<path d="M9750 15111 c0 -61 4 -101 10 -101 6 0 10 17 10 39 l0 38 50 7 c73
10 99 46 66 91 -10 13 -30 20 -75 23 l-61 4 0 -101z m120 60 c13 -25 13 -27
-6 -45 -9 -9 -32 -16 -55 -16 -39 0 -39 0 -39 40 l0 40 45 0 c34 0 47 -5 55
-19z"/>
<path d="M9940 15110 c0 -60 4 -100 10 -100 6 0 10 20 10 45 0 43 1 45 30 45
25 0 36 -9 62 -45 30 -42 48 -56 48 -36 0 10 -39 63 -54 73 -11 7 -11 7 19 24
11 6 21 23 23 37 4 36 -30 57 -95 57 l-53 0 0 -100z m121 64 c22 -26 -1 -49
-55 -52 l-46 -3 0 35 c0 36 0 36 44 36 28 0 48 -6 57 -16z"/>
<path d="M10165 15186 c-33 -33 -41 -85 -20 -125 21 -42 55 -57 103 -45 29 7
41 17 56 47 34 71 -8 147 -82 147 -21 0 -41 -8 -57 -24z m110 -16 c11 -12 18
-35 18 -60 0 -51 -25 -80 -68 -80 -43 0 -70 31 -70 80 0 24 8 46 19 59 25 27
77 28 101 1z"/>
<path d="M10430 15136 c0 -41 -3 -81 -6 -90 -9 -24 -49 -20 -62 7 -10 21 -11
21 -11 2 -2 -46 56 -62 83 -23 18 26 23 178 6 178 -6 0 -10 -31 -10 -74z"/>
<path d="M10500 15110 l0 -100 70 0 c40 0 70 4 70 10 0 6 -27 10 -61 10 l-60
0 3 38 3 37 55 6 55 6 -57 1 -58 2 0 35 0 35 60 0 c33 0 60 4 60 10 0 6 -30
10 -70 10 l-70 0 0 -100z"/>
<path d="M10724 15198 c-57 -27 -56 -160 1 -182 45 -17 115 7 115 40 0 20 -13
17 -28 -6 -8 -14 -23 -20 -47 -20 -41 0 -65 29 -65 80 0 51 24 80 65 80 23 0
39 -7 48 -21 11 -15 17 -17 23 -8 10 17 -32 49 -65 48 -14 0 -36 -5 -47 -11z"/>
<path d="M10870 15200 c0 -5 16 -10 35 -10 l35 0 0 -90 c0 -53 4 -90 10 -90 6
0 10 37 10 90 l0 90 30 0 c17 0 30 5 30 10 0 6 -32 10 -75 10 -43 0 -75 -4
-75 -10z"/>
<path d="M11077 15196 c-12 -10 -17 -24 -15 -43 3 -24 10 -30 53 -45 57 -19
75 -39 56 -62 -19 -22 -67 -20 -91 4 -11 11 -22 20 -25 20 -12 0 -3 -21 17
-40 42 -38 128 -16 128 34 0 30 -18 45 -72 61 -35 10 -43 17 -43 36 0 20 6 25
35 27 24 3 38 -2 47 -14 7 -10 16 -14 20 -10 12 12 -37 46 -66 46 -14 0 -34
-7 -44 -14z"/>
<path d="M27503 15200 c-30 -12 -43 -41 -43 -95 0 -56 32 -95 79 -95 36 0 88
41 76 59 -5 9 -11 6 -19 -11 -15 -30 -70 -37 -97 -12 -26 23 -26 104 -1 127
26 24 78 22 95 -4 8 -11 17 -16 21 -11 3 5 -4 19 -15 30 -21 23 -58 27 -96 12z"/>
<path d="M27689 15181 c-23 -23 -29 -38 -29 -71 0 -53 42 -100 90 -100 48 0
90 47 90 100 0 53 -42 100 -90 100 -22 0 -41 -9 -61 -29z m111 -11 c13 -13 20
-33 20 -60 0 -49 -27 -80 -70 -80 -43 0 -70 31 -70 80 0 49 27 80 70 80 17 0
39 -9 50 -20z"/>
<path d="M27880 15111 c0 -56 4 -101 9 -101 6 0 11 19 13 43 l3 42 53 5 c69 7
91 40 58 85 -10 13 -30 20 -75 23 l-61 4 0 -101z m120 60 c13 -25 13 -27 -6
-45 -9 -9 -32 -16 -55 -16 -39 0 -39 0 -39 40 l0 40 45 0 c34 0 47 -5 55 -19z"/>
<path d="M28090 15151 c30 -46 40 -70 40 -100 0 -23 5 -41 10 -41 6 0 10 21
10 46 0 33 7 56 28 87 41 60 44 67 34 67 -6 0 -23 -20 -39 -45 -15 -25 -31
-45 -35 -45 -3 0 -19 20 -35 45 -15 25 -34 45 -41 45 -7 0 4 -25 28 -59z"/>
<path d="M28340 15110 c0 -60 4 -100 10 -100 6 0 10 20 10 45 l0 45 45 0 c25
0 45 5 45 10 0 6 -20 10 -45 10 -45 0 -45 0 -45 35 l0 35 50 0 c28 0 50 5 50
10 0 6 -27 10 -60 10 l-60 0 0 -100z"/>
<path d="M28510 15110 c0 -60 4 -100 10 -100 6 0 10 40 10 100 0 60 -4 100
-10 100 -6 0 -10 -40 -10 -100z"/>
<path d="M28580 15110 l0 -100 60 0 c33 0 60 4 60 10 0 6 -22 10 -50 10 l-50
0 0 90 c0 53 -4 90 -10 90 -6 0 -10 -40 -10 -100z"/>
<path d="M28700 15200 c0 -5 16 -10 35 -10 l35 0 0 -90 c0 -53 4 -90 10 -90 6
0 10 37 10 90 l0 90 30 0 c17 0 30 5 30 10 0 6 -32 10 -75 10 -43 0 -75 -4
-75 -10z"/>
<path d="M28890 15110 l0 -100 70 0 c40 0 70 4 70 10 0 6 -27 10 -61 10 l-60
0 3 38 3 37 55 6 55 6 -57 1 -58 2 0 35 0 35 60 0 c33 0 60 4 60 10 0 6 -30
10 -70 10 l-70 0 0 -100z"/>
<path d="M29082 15108 c1 -72 3 -89 7 -58 6 42 8 45 38 48 27 3 35 -3 63 -42
17 -25 35 -46 41 -46 12 0 -14 52 -35 69 -20 17 -20 31 -1 31 14 0 35 29 35
49 0 6 -9 20 -20 31 -15 15 -33 20 -75 20 l-55 0 2 -102z m119 66 c23 -28 -1
-49 -57 -49 -50 0 -64 14 -50 51 8 20 89 19 107 -2z"/>
<path d="M29302 15198 c-18 -9 -22 -18 -20 -42 3 -27 9 -33 48 -46 59 -20 70
-28 70 -50 0 -36 -80 -43 -104 -8 -9 12 -19 18 -23 14 -5 -4 5 -19 21 -33 23
-20 37 -24 64 -20 43 8 62 23 62 52 0 29 -17 42 -71 58 -37 11 -44 17 -44 37
0 21 5 26 35 28 24 3 38 -2 47 -14 7 -10 16 -14 20 -10 11 11 -36 46 -61 45
-11 0 -31 -5 -44 -11z"/>
<path d="M5280 14650 c0 -20 7 -20 990 -20 983 0 990 0 990 20 0 20 -7 20
-990 20 -983 0 -990 0 -990 -20z"/>
<path d="M10316 13864 c-32 -31 -18 -53 47 -74 41 -13 57 -34 39 -52 -16 -16
-61 -12 -82 7 -17 15 -20 16 -20 3 0 -9 14 -21 31 -28 40 -17 83 -3 87 28 5
31 -10 46 -58 61 -29 8 -40 17 -40 31 0 27 45 38 69 16 25 -23 38 -20 16 4
-22 24 -67 26 -89 4z"/>
<path d="M10880 13795 l0 -88 47 6 c57 6 83 33 83 86 -1 53 -21 73 -80 79
l-50 5 0 -88z m100 50 c6 -8 12 -30 12 -50 0 -48 -17 -65 -63 -65 l-39 0 0 65
0 65 39 0 c22 0 44 -6 51 -15z"/>
<path d="M13740 13795 l0 -85 60 0 c33 0 60 4 60 10 0 6 -22 10 -50 10 -49 0
-50 1 -50 30 0 29 2 30 45 30 25 0 45 5 45 10 0 6 -20 10 -45 10 -41 0 -45 2
-45 25 0 23 3 25 50 25 28 0 50 5 50 10 0 6 -27 10 -60 10 l-60 0 0 -85z"/>
<path d="M14110 13852 c0 -24 -4 -27 -32 -27 -24 0 -35 -6 -44 -23 -25 -49 16
-109 56 -84 12 7 20 8 20 2 0 -5 5 -10 10 -10 6 0 10 35 10 85 0 50 -4 85 -10
85 -5 0 -10 -12 -10 -28z m-4 -56 c8 -33 2 -57 -18 -69 -23 -15 -48 8 -48 42
0 51 54 73 66 27z"/>
<path d="M14240 13795 l0 -88 47 6 c57 6 83 33 83 86 -1 53 -21 73 -80 79
l-50 5 0 -88z m100 50 c6 -8 12 -30 12 -50 0 -48 -17 -65 -63 -65 l-39 0 0 65
0 65 39 0 c22 0 44 -6 51 -15z"/>
<path d="M10464 13853 c-5 -13 -7 -48 -4 -80 4 -45 9 -59 23 -61 9 -2 17 1 17
7 0 6 -4 11 -10 11 -5 0 -10 20 -10 45 0 29 4 45 13 45 8 0 9 2 1 8 -7 4 -14
16 -16 27 -5 19 -5 19 -14 -2z"/>
<path d="M10744 13853 c-5 -13 -7 -48 -4 -80 4 -45 9 -59 23 -61 9 -2 17 1 17
7 0 6 -4 11 -10 11 -5 0 -10 20 -10 45 0 29 4 45 13 45 8 0 9 2 1 8 -7 4 -14
16 -16 27 -5 19 -5 19 -14 -2z"/>
<path d="M11184 13853 c-5 -13 -7 -48 -4 -80 4 -45 9 -59 23 -61 9 -2 17 1 17
7 0 6 -4 11 -10 11 -5 0 -10 20 -10 45 0 29 4 45 13 45 8 0 9 2 1 8 -7 4 -14
16 -16 27 -5 19 -5 19 -14 -2z"/>
<path d="M14544 13853 c-5 -13 -7 -48 -4 -80 4 -45 9 -59 23 -61 9 -2 17 1 17
7 0 6 -4 11 -10 11 -5 0 -10 20 -10 45 0 29 4 45 13 45 8 0 9 2 1 8 -7 4 -14
16 -16 27 -5 19 -5 19 -14 -2z"/>
<path d="M10537 13824 c-4 -4 -7 -12 -7 -18 0 -6 5 -5 12 2 17 17 55 15 62 -3
6 -16 1 -19 -47 -29 -35 -8 -45 -32 -23 -54 13 -14 21 -14 46 -5 17 6 30 7 30
2 0 -5 3 -9 8 -9 4 0 5 26 2 58 -5 57 -5 57 -40 60 -20 2 -39 0 -43 -4z m66
-74 c-9 -34 -63 -38 -63 -5 0 15 15 23 47 24 16 1 20 -3 16 -19z"/>
<path d="M10661 13765 c1 -33 4 -46 6 -30 7 60 14 76 36 85 19 8 18 9 -10 7
l-33 -1 1 -61z"/>
<path d="M11057 13824 c-4 -4 -7 -12 -7 -18 0 -6 5 -5 12 2 17 17 55 15 62 -3
6 -16 1 -19 -47 -29 -35 -8 -45 -32 -23 -54 13 -14 21 -14 46 -5 17 6 30 7 30
2 0 -5 3 -9 8 -9 4 0 5 26 2 58 -5 57 -5 57 -40 60 -20 2 -39 0 -43 -4z m66
-74 c-9 -34 -63 -38 -63 -5 0 15 15 23 47 24 16 1 20 -3 16 -19z"/>
<path d="M11250 13811 c-5 -11 -10 -31 -10 -44 0 -44 59 -74 88 -45 21 21 13
32 -9 12 -22 -20 -51 -11 -57 20 -3 13 5 16 42 16 50 0 54 4 30 38 -20 28 -69
30 -84 3z m70 5 c0 -2 3 -11 6 -20 5 -13 -1 -16 -30 -16 -34 0 -47 15 -29 33
7 8 53 10 53 3z"/>
<path d="M13901 13765 l2 -60 6 47 c8 54 20 71 47 66 15 -2 20 -15 25 -58 l6
-55 -1 60 -1 60 -42 0 -43 1 1 -61z"/>
<path d="M14417 13824 c-4 -4 -7 -12 -7 -18 0 -6 5 -5 12 2 17 17 55 15 62 -3
6 -16 1 -19 -47 -29 -35 -8 -45 -32 -23 -54 13 -14 21 -14 46 -5 17 6 30 7 30
2 0 -5 3 -9 8 -9 4 0 5 26 2 58 -5 57 -5 57 -40 60 -20 2 -39 0 -43 -4z m66
-74 c-9 -34 -63 -38 -63 -5 0 15 15 23 47 24 16 1 20 -3 16 -19z"/>
<path d="M14610 13811 c-5 -11 -10 -31 -10 -44 0 -44 59 -74 88 -45 21 21 13
32 -9 12 -22 -20 -51 -11 -57 20 -3 13 5 16 42 16 50 0 54 4 30 38 -20 28 -69
30 -84 3z m70 5 c0 -2 3 -11 6 -20 5 -13 -1 -16 -30 -16 -34 0 -47 15 -29 33
7 8 53 10 53 3z"/>
<path d="M18796 13554 c-13 -13 -16 -42 -16 -164 0 -122 3 -151 16 -164 23
-23 305 -23 328 0 13 13 16 42 16 164 0 122 -3 151 -16 164 -13 13 -42 16
-164 16 -122 0 -151 -3 -164 -16z m304 -164 l0 -140 -140 0 -140 0 0 140 0
140 140 0 140 0 0 -140z"/>
<path d="M21516 13554 c-13 -13 -16 -42 -16 -164 0 -122 3 -151 16 -164 23
-23 305 -23 328 0 13 13 16 42 16 164 0 122 -3 151 -16 164 -13 13 -42 16
-164 16 -122 0 -151 -3 -164 -16z m304 -164 l0 -140 -140 0 -140 0 0 140 0
140 140 0 140 0 0 -140z"/>
<path d="M12480 13545 c0 -8 -4 -15 -10 -15 -5 0 -19 -9 -30 -20 -17 -17 -20
-33 -20 -120 0 -139 2 -140 160 -140 158 0 160 1 160 140 0 91 -2 102 -22 120
-13 12 -30 27 -39 35 -20 19 -39 19 -39 0 0 -12 -13 -15 -59 -15 -43 0 -60 4
-65 15 -3 8 -12 15 -21 15 -8 0 -15 -7 -15 -15z m230 -180 l0 -85 -130 0 -130
0 0 85 0 85 130 0 130 0 0 -85z"/>
<path d="M15910 13545 c0 -8 -4 -15 -10 -15 -5 0 -19 -9 -30 -20 -17 -17 -20
-33 -20 -120 0 -139 2 -140 160 -140 158 0 160 1 160 140 0 91 -2 102 -22 120
-13 12 -30 27 -39 35 -20 19 -39 19 -39 0 0 -12 -13 -15 -59 -15 -43 0 -60 4
-65 15 -3 8 -12 15 -21 15 -8 0 -15 -7 -15 -15z m230 -180 l0 -85 -130 0 -130
0 0 85 0 85 130 0 130 0 0 -85z"/>
<path d="M10995 13498 c-11 -33 -55 -198 -55 -207 0 -6 4 -11 8 -11 5 0 21 44
35 99 15 54 30 106 33 115 3 9 1 16 -5 16 -7 0 -14 -6 -16 -12z"/>
<path d="M11210 13470 c0 -39 -1 -39 -25 -28 -62 28 -112 -51 -77 -122 18 -38
60 -52 88 -29 10 8 14 8 14 0 0 -6 7 -11 15 -11 12 0 15 19 15 115 0 96 -3
115 -15 115 -11 0 -15 -11 -15 -40z m-18 -57 c33 -30 17 -113 -22 -113 -23 0
-50 36 -50 67 0 21 31 63 47 63 3 0 15 -7 25 -17z"/>
<path d="M11390 13470 c0 -39 -1 -39 -25 -28 -72 33 -126 -80 -68 -144 18 -20
63 -24 81 -6 9 9 12 9 12 0 0 -7 5 -12 10 -12 6 0 10 45 10 115 0 70 -4 115
-10 115 -5 0 -10 -18 -10 -40z m-20 -60 c34 -34 20 -110 -20 -110 -45 0 -68
74 -33 112 21 23 28 23 53 -2z"/>
<path d="M11532 13398 c-28 -102 -33 -132 -16 -115 7 7 64 197 64 215 0 6 -4
12 -8 12 -5 0 -23 -50 -40 -112z"/>
<path d="M14402 13398 c-28 -102 -33 -132 -16 -115 7 7 64 197 64 215 0 6 -4
12 -8 12 -5 0 -23 -50 -40 -112z"/>
<path d="M14650 13470 c0 -38 -12 -52 -25 -30 -23 37 -95 -19 -95 -73 0 -65
70 -113 108 -75 9 9 12 9 12 0 0 -7 5 -12 10 -12 6 0 10 45 10 115 0 70 -4
115 -10 115 -5 0 -10 -18 -10 -40z m-30 -50 c44 -23 28 -120 -20 -120 -38 0
-55 83 -24 114 18 19 20 19 44 6z"/>
<path d="M14820 13471 l0 -39 -30 11 c-26 10 -32 8 -55 -13 -19 -18 -25 -33
-25 -67 0 -61 24 -83 90 -82 l50 2 0 113 c0 95 -3 114 -15 114 -11 0 -15 -11
-15 -39z m-16 -57 c19 -18 21 -85 4 -102 -16 -16 -43 -15 -58 3 -19 22 -15 87
6 102 23 17 29 16 48 -3z"/>
<path d="M14995 13498 c-11 -33 -55 -198 -55 -207 0 -6 4 -11 8 -11 5 0 21 44
35 99 15 54 30 106 33 115 3 9 1 16 -5 16 -7 0 -14 -6 -16 -12z"/>
<path d="M19432 13402 c-47 -123 -47 -122 -28 -122 8 0 20 16 26 35 11 34 13
35 60 35 47 0 49 -2 61 -35 8 -22 20 -35 30 -35 15 0 11 17 -29 115 -32 79
-52 115 -63 115 -11 0 -29 -33 -57 -108z m77 29 c18 -54 15 -61 -25 -61 -25 0
-34 4 -30 13 3 6 11 31 18 54 13 47 19 46 37 -6z"/>
<path d="M19730 13470 c0 -38 -12 -52 -25 -30 -23 37 -95 -19 -95 -73 0 -65
70 -113 108 -75 9 9 12 9 12 0 0 -7 5 -12 10 -12 6 0 10 45 10 115 0 70 -4
115 -10 115 -5 0 -10 -18 -10 -40z m-30 -50 c44 -23 28 -120 -20 -120 -38 0
-55 83 -24 114 18 19 20 19 44 6z"/>
<path d="M19800 13495 c0 -8 5 -15 10 -15 6 0 10 7 10 15 0 8 -4 15 -10 15 -5
0 -10 -7 -10 -15z"/>
<path d="M20030 13495 c0 -8 7 -15 15 -15 8 0 15 7 15 15 0 8 -7 15 -15 15 -8
0 -15 -7 -15 -15z"/>
<path d="M20630 13395 c0 -96 3 -115 15 -115 12 0 15 19 15 115 0 96 -3 115
-15 115 -12 0 -15 -19 -15 -115z"/>
<path d="M22130 13396 c0 -96 3 -116 15 -116 11 0 15 12 15 44 l0 43 51 6 c60
7 89 29 89 67 0 49 -21 64 -99 68 l-71 4 0 -116z m134 62 c19 -30 -4 -53 -58
-56 l-46 -3 0 41 0 41 46 -3 c31 -2 51 -9 58 -20z"/>
<path d="M5590 13385 c0 -66 4 -115 9 -115 6 0 11 24 13 53 l3 52 53 3 c70 4
67 22 -4 22 l-55 0 3 38 3 37 63 3 c88 4 78 22 -13 22 l-75 0 0 -115z"/>
<path d="M5780 13485 c0 -8 5 -15 10 -15 6 0 10 7 10 15 0 8 -4 15 -10 15 -5
0 -10 -7 -10 -15z"/>
<path d="M5850 13385 c0 -70 4 -115 10 -115 6 0 10 45 10 115 0 70 -4 115 -10
115 -6 0 -10 -45 -10 -115z"/>
<path d="M6190 13385 c0 -96 3 -115 15 -115 12 0 15 17 15 93 l0 92 61 -92
c34 -51 68 -93 75 -93 11 0 14 25 14 115 0 96 -3 115 -15 115 -12 0 -15 -17
-15 -92 l0 -93 -61 93 c-34 50 -68 92 -75 92 -11 0 -14 -25 -14 -115z"/>
<path d="M23653 13493 c-7 -3 -13 -13 -13 -23 0 -10 -5 -22 -11 -26 -8 -4 -8
-9 0 -17 6 -6 11 -36 11 -67 0 -58 11 -80 42 -80 22 0 24 16 3 24 -23 8 -21
112 3 121 16 6 16 7 0 19 -9 6 -18 21 -20 32 -1 12 -9 19 -15 17z"/>
<path d="M24345 13490 c-25 -37 -33 -60 -24 -65 5 -4 9 -26 9 -50 0 -60 15
-95 40 -95 23 0 27 15 5 24 -11 4 -15 21 -15 61 0 42 3 55 15 55 8 0 15 7 15
15 0 8 -6 15 -14 15 -9 0 -16 12 -18 28 -2 22 -5 24 -13 12z"/>
<path d="M24877 13493 c-4 -3 -7 -15 -7 -25 0 -10 -4 -18 -10 -18 -5 0 -10 -7
-10 -15 0 -8 4 -15 10 -15 5 0 10 -30 12 -67 3 -66 4 -68 31 -71 29 -4 37 12
12 22 -17 6 -22 116 -5 116 6 0 10 7 10 15 0 8 -4 15 -10 15 -5 0 -10 11 -10
25 0 24 -10 32 -23 18z"/>
<path d="M17230 13390 c0 -82 3 -100 15 -100 11 0 15 12 15 45 l0 45 45 0 c25
0 45 5 45 10 0 6 -20 10 -45 10 -45 0 -45 0 -45 35 l0 35 55 0 c30 0 55 5 55
10 0 6 -30 10 -70 10 l-70 0 0 -100z"/>
<path d="M17400 13475 c0 -8 5 -15 10 -15 6 0 10 7 10 15 0 8 -4 15 -10 15 -5
0 -10 -7 -10 -15z"/>
<path d="M17460 13390 c0 -82 3 -100 15 -100 12 0 15 18 15 100 0 82 -3 100
-15 100 -12 0 -15 -18 -15 -100z"/>
<path d="M17930 13392 l0 -98 42 -1 c27 -2 49 4 60 14 25 23 24 87 -2 113 -23
23 -33 24 -61 10 -17 -10 -19 -7 -19 25 0 19 -4 35 -10 35 -6 0 -10 -39 -10
-98z m90 8 c26 -48 -9 -108 -47 -84 -24 15 -28 67 -8 88 22 22 42 20 55 -4z"/>
<path d="M17538 13474 c-5 -4 -8 -16 -8 -26 0 -10 -6 -18 -12 -18 -10 0 -10
-2 -1 -8 6 -4 13 -34 15 -67 3 -53 5 -60 26 -63 25 -4 30 13 7 22 -21 8 -21
94 0 102 14 6 14 8 1 18 -8 6 -16 19 -18 29 -1 11 -6 15 -10 11z"/>
<path d="M10367 13444 c-4 -4 -7 -43 -7 -86 0 -63 3 -78 15 -78 12 0 15 13 15
58 0 61 5 75 31 84 28 10 39 -13 39 -79 0 -49 3 -63 15 -63 12 0 15 14 15 65
0 51 4 66 18 74 36 19 52 -4 52 -74 0 -51 3 -65 15 -65 12 0 15 12 14 53 -2
101 -27 135 -77 106 -25 -14 -30 -14 -50 -1 -17 11 -28 12 -46 4 -15 -6 -27
-7 -33 -1 -5 5 -12 6 -16 3z"/>
<path d="M10630 13365 c0 -69 3 -85 15 -85 12 0 15 14 15 65 0 70 16 93 52 74
14 -8 18 -23 18 -74 0 -37 4 -65 10 -65 6 0 10 20 10 44 0 80 31 123 65 90 10
-10 15 -35 15 -75 0 -33 4 -59 10 -59 6 0 10 32 10 75 0 70 -2 76 -25 87 -19
8 -29 8 -47 -4 -21 -14 -26 -14 -46 0 -19 12 -27 13 -50 3 -18 -9 -28 -9 -30
-2 -2 6 -8 11 -13 11 -5 0 -9 -38 -9 -85z"/>
<path d="M11660 13441 c0 -6 11 -40 25 -77 31 -82 32 -114 5 -121 -21 -6 -26
-18 -11 -27 20 -13 52 34 87 127 20 54 33 101 30 105 -9 8 -21 -7 -34 -43 -6
-16 -17 -43 -23 -60 l-11 -30 -22 64 c-12 36 -28 67 -34 69 -7 2 -12 -1 -12
-7z"/>
<path d="M11820 13441 c0 -6 11 -40 25 -77 31 -82 32 -114 5 -121 -21 -6 -26
-18 -11 -27 20 -13 52 34 87 127 20 54 33 101 30 105 -9 8 -21 -7 -34 -43 -6
-16 -17 -43 -23 -60 l-11 -30 -22 64 c-12 36 -28 67 -34 69 -7 2 -12 -1 -12
-7z"/>
<path d="M11980 13441 c0 -6 11 -40 25 -77 31 -82 32 -114 5 -121 -21 -6 -26
-18 -11 -27 20 -13 52 34 87 127 20 54 33 101 30 105 -9 8 -21 -7 -34 -43 -6
-16 -17 -43 -23 -60 l-11 -30 -22 64 c-12 36 -28 67 -34 69 -7 2 -12 -1 -12
-7z"/>
<path d="M12140 13441 c0 -6 11 -40 25 -77 31 -82 32 -114 5 -121 -21 -6 -26
-18 -11 -27 20 -13 52 34 87 127 20 54 33 101 30 105 -9 8 -21 -7 -34 -43 -6
-16 -17 -43 -23 -60 l-11 -30 -22 64 c-12 36 -28 67 -34 69 -7 2 -12 -1 -12
-7z"/>
<path d="M13800 13365 c0 -50 4 -85 10 -85 6 0 10 25 10 55 0 41 5 60 20 75
37 37 60 7 60 -82 0 -27 5 -48 10 -48 6 0 10 26 10 59 0 50 4 62 21 75 37 26
49 11 49 -65 0 -55 3 -69 15 -69 22 0 21 132 -1 154 -20 20 -43 20 -72 0 -12
-8 -22 -11 -22 -5 0 16 -38 23 -62 10 -16 -9 -23 -9 -26 0 -2 6 -8 11 -13 11
-5 0 -9 -38 -9 -85z"/>
<path d="M14067 13444 c-4 -4 -7 -43 -7 -86 0 -63 3 -78 15 -78 12 0 15 13 15
59 0 50 4 62 21 75 37 26 49 11 49 -65 0 -55 3 -69 15 -69 12 0 15 13 15 58 0
68 9 85 41 80 22 -3 24 -8 27 -70 2 -52 6 -68 17 -68 12 0 15 15 15 63 0 92
-35 130 -85 93 -16 -12 -22 -12 -42 2 -18 11 -29 12 -47 4 -15 -6 -27 -7 -33
-1 -5 5 -12 6 -16 3z"/>
<path d="M15090 13446 c0 -2 14 -41 31 -85 32 -85 32 -109 -1 -118 -22 -6 -26
-18 -10 -28 23 -14 49 19 83 111 21 53 37 103 37 112 0 30 -26 -9 -45 -68 -15
-45 -20 -51 -26 -35 -32 81 -49 115 -58 115 -6 0 -11 -2 -11 -4z"/>
<path d="M15250 13446 c0 -2 14 -41 31 -85 32 -85 32 -109 -1 -118 -22 -6 -26
-18 -10 -28 23 -14 49 19 83 111 21 53 37 103 37 112 0 30 -26 -9 -45 -68 -15
-45 -20 -51 -26 -35 -32 81 -49 115 -58 115 -6 0 -11 -2 -11 -4z"/>
<path d="M15410 13446 c0 -2 14 -41 31 -85 32 -85 32 -109 -1 -118 -22 -6 -26
-18 -10 -28 23 -14 49 19 83 111 21 53 37 103 37 112 0 30 -26 -9 -45 -68 -15
-45 -20 -51 -26 -35 -32 81 -49 115 -58 115 -6 0 -11 -2 -11 -4z"/>
<path d="M15570 13446 c0 -2 14 -41 31 -85 32 -85 32 -109 -1 -118 -22 -6 -26
-18 -10 -28 23 -14 49 19 83 111 21 53 37 103 37 112 0 30 -26 -9 -45 -68 -15
-45 -20 -51 -26 -35 -32 81 -49 115 -58 115 -6 0 -11 -2 -11 -4z"/>
<path d="M19800 13365 c0 -50 4 -85 10 -85 6 0 10 35 10 85 0 50 -4 85 -10 85
-6 0 -10 -35 -10 -85z"/>
<path d="M19890 13432 c-13 -10 -23 -33 -27 -57 -7 -54 24 -95 71 -95 32 0 66
25 66 48 0 19 -18 14 -30 -8 -14 -26 -56 -26 -70 -1 -19 36 -12 79 15 97 24
16 27 15 45 -1 28 -26 49 -14 22 13 -27 27 -62 28 -92 4z"/>
<path d="M20030 13366 c0 -71 3 -86 15 -86 13 0 15 14 13 82 -2 54 -7 83 -15
86 -10 3 -13 -18 -13 -82z"/>
<path d="M20115 13425 c-51 -51 -18 -145 51 -145 47 0 74 29 74 80 0 49 -35
90 -75 90 -14 0 -37 -11 -50 -25z m79 -11 c16 -16 20 -33 16 -69 -3 -29 -19
-45 -46 -45 -46 0 -62 86 -22 114 28 20 33 20 52 0z"/>
<path d="M20280 13365 c0 -98 15 -115 22 -24 5 69 26 96 59 78 16 -8 19 -22
19 -74 0 -51 3 -65 15 -65 12 0 15 14 15 70 0 63 -2 71 -25 86 -22 14 -30 15
-53 5 -18 -9 -28 -9 -30 -2 -2 6 -8 11 -13 11 -5 0 -9 -38 -9 -85z"/>
<path d="M20484 13440 c-25 -10 -40 -40 -20 -40 7 0 19 7 26 15 15 18 42 19
58 3 22 -22 12 -35 -30 -42 -23 -4 -48 -12 -55 -18 -16 -13 -17 -50 -1 -66 15
-15 70 -16 85 -1 8 8 13 8 17 0 17 -26 26 -6 26 54 0 52 -4 69 -20 85 -21 21
-51 25 -86 10z m76 -98 c0 -26 -20 -42 -51 -42 -45 0 -45 36 1 53 31 11 50 7
50 -11z"/>
<path d="M20716 13434 c-19 -19 -21 -48 -3 -61 6 -6 29 -16 50 -23 27 -8 37
-17 35 -28 -4 -23 -46 -27 -68 -7 -29 26 -49 14 -22 -13 47 -47 139 -13 114
43 -6 14 -16 25 -22 25 -6 0 -27 7 -47 15 -30 13 -33 17 -23 30 16 19 34 19
54 0 16 -17 36 -20 36 -6 0 15 -42 41 -67 41 -12 0 -29 -7 -37 -16z"/>
<path d="M22340 13365 c0 -50 4 -85 10 -85 6 0 10 20 10 44 0 61 15 96 40 96
11 0 20 5 20 10 0 17 -29 23 -45 10 -10 -9 -15 -9 -15 -1 0 6 -4 11 -10 11 -6
0 -10 -35 -10 -85z"/>
<path d="M22466 13429 c-21 -17 -26 -29 -26 -65 0 -55 25 -84 73 -84 30 0 67
24 67 43 0 14 -28 7 -34 -8 -7 -18 -50 -20 -64 -2 -27 32 -18 42 44 47 l60 5
-8 31 c-5 18 -18 35 -33 42 -36 17 -48 15 -79 -9z m63 -9 c10 -5 21 -16 25
-25 4 -12 -3 -15 -39 -15 -48 0 -62 19 -27 39 21 13 20 13 41 1z"/>
<path d="M22638 13439 c-21 -12 -24 -52 -5 -66 6 -6 29 -16 50 -23 27 -8 37
-17 35 -28 -4 -23 -52 -27 -72 -7 -24 24 -39 14 -21 -13 23 -32 88 -31 110 2
8 13 13 30 10 38 -6 16 -46 38 -69 38 -8 0 -19 7 -27 16 -10 13 -10 17 2 25
20 13 35 11 53 -6 16 -17 36 -20 36 -6 0 15 -42 41 -65 41 -11 0 -28 -5 -37
-11z"/>
<path d="M22798 13439 c-21 -12 -24 -52 -5 -66 6 -6 29 -16 50 -23 27 -8 37
-17 35 -28 -4 -23 -52 -27 -72 -7 -24 24 -39 14 -21 -13 23 -32 88 -31 110 2
8 13 13 30 10 38 -6 16 -46 38 -69 38 -8 0 -19 7 -27 16 -10 13 -10 17 2 25
20 13 35 11 53 -6 16 -17 36 -20 36 -6 0 15 -42 41 -65 41 -11 0 -28 -5 -37
-11z"/>
<path d="M22947 13444 c-14 -15 -7 -132 9 -148 18 -19 65 -21 82 -4 9 9 12 9
12 0 0 -7 5 -12 10 -12 6 0 10 35 10 85 0 50 -4 85 -10 85 -6 0 -10 -26 -10
-58 0 -47 -4 -63 -21 -78 -33 -30 -53 -8 -57 62 -3 58 -12 81 -25 68z"/>
<path d="M23120 13335 c0 -96 3 -115 15 -115 10 0 15 10 15 34 0 29 3 33 20
29 33 -9 66 5 78 32 19 42 14 83 -13 110 -27 28 -37 30 -68 14 -16 -9 -22 -9
-25 0 -2 6 -8 11 -13 11 -5 0 -9 -52 -9 -115z m91 85 c14 -8 19 -21 19 -53 0
-45 -13 -67 -41 -67 -42 0 -61 89 -24 116 23 17 21 17 46 4z"/>
<path d="M23315 13425 c-51 -51 -18 -145 51 -145 47 0 74 29 74 80 0 49 -35
90 -75 90 -14 0 -37 -11 -50 -25z m79 -11 c16 -16 20 -33 16 -69 -3 -29 -19
-45 -46 -45 -46 0 -62 86 -22 114 28 20 33 20 52 0z"/>
<path d="M23492 13434 c-24 -17 -29 -46 -9 -62 6 -6 28 -14 47 -19 25 -7 35
-15 35 -29 0 -24 -46 -32 -65 -10 -16 20 -30 20 -30 1 0 -35 85 -48 113 -17
33 36 20 61 -45 81 -21 7 -38 18 -38 26 0 21 31 27 56 10 29 -19 34 -19 34 0
0 15 -37 35 -63 35 -7 0 -23 -7 -35 -16z"/>
<path d="M23845 13438 c-29 -17 -35 -28 -35 -75 0 -30 6 -49 20 -63 35 -35 98
-22 113 23 9 24 -15 22 -31 -3 -15 -24 -45 -26 -63 -4 -20 24 -16 84 6 100 25
18 31 18 55 -6 25 -25 39 -6 14 21 -19 21 -49 24 -79 7z"/>
<path d="M23996 13428 c-36 -33 -39 -95 -6 -128 25 -25 81 -27 102 -2 51 57
15 152 -57 152 -8 0 -25 -10 -39 -22z m74 -18 c37 -37 17 -110 -30 -110 -23 0
-50 36 -50 67 0 23 32 63 50 63 6 0 19 -9 30 -20z"/>
<path d="M24157 13444 c-4 -4 -7 -43 -7 -86 0 -63 3 -78 15 -78 12 0 15 13 15
58 0 60 6 76 30 84 36 12 50 -10 50 -77 0 -51 3 -65 15 -65 16 0 21 59 9 120
-8 39 -43 58 -78 42 -15 -6 -27 -7 -33 -1 -5 5 -12 6 -16 3z"/>
<path d="M24420 13365 c0 -69 3 -85 15 -85 12 0 15 14 15 65 0 44 4 67 13 69
47 14 50 17 39 28 -9 9 -18 9 -37 0 -15 -7 -25 -8 -25 -2 0 6 -4 10 -10 10 -6
0 -10 -35 -10 -85z"/>
<path d="M24553 13438 c-24 -12 -39 -38 -21 -38 6 0 19 7 29 16 24 21 69 11
69 -15 0 -14 -10 -20 -42 -25 -23 -4 -48 -12 -55 -18 -16 -13 -17 -50 -1 -66
16 -16 70 -15 87 1 11 10 14 10 18 0 3 -7 10 -13 16 -13 8 0 11 21 9 70 -3 58
-7 73 -25 85 -25 17 -52 18 -84 3z m77 -97 c0 -25 -24 -43 -52 -39 -31 4 -36
36 -6 47 38 16 58 13 58 -8z"/>
<path d="M24735 13438 c-29 -17 -35 -28 -35 -75 0 -30 6 -49 20 -63 35 -35 98
-22 113 23 9 24 -15 22 -31 -3 -15 -24 -45 -26 -63 -4 -20 24 -16 84 6 100 25
18 31 18 55 -6 25 -25 39 -6 14 21 -19 21 -49 24 -79 7z"/>
<path d="M24983 13438 c-27 -13 -47 -68 -38 -100 13 -40 36 -58 75 -58 33 0
70 23 70 43 0 13 -27 7 -40 -8 -17 -20 -43 -19 -63 3 -30 33 -21 42 43 42 57
0 60 1 60 24 0 27 -42 66 -69 65 -9 0 -26 -5 -38 -11z m58 -18 c36 -20 23 -40
-26 -40 -42 0 -45 2 -35 19 8 16 21 26 38 30 2 1 12 -4 23 -9z"/>
<path d="M5958 13428 c-18 -6 -31 -21 -38 -43 -21 -63 12 -115 72 -115 32 0
81 41 58 48 -7 3 -17 -3 -22 -12 -11 -19 -59 -21 -76 -4 -7 7 -12 20 -12 30 0
15 9 18 60 18 63 0 67 4 49 44 -15 31 -55 46 -91 34z m60 -20 c25 -25 13 -38
-33 -38 -48 0 -55 9 -29 34 18 19 45 21 62 4z"/>
<path d="M6463 13433 c-24 -5 -49 -30 -39 -40 3 -3 14 1 24 10 25 23 59 21 72
-3 9 -17 7 -22 -15 -30 -15 -6 -35 -10 -45 -10 -10 0 -26 -7 -34 -16 -42 -41
7 -89 67 -66 21 8 33 9 35 2 2 -5 8 -10 13 -10 14 0 11 124 -3 142 -15 19 -44
27 -75 21z m60 -100 c-11 -32 -25 -43 -53 -43 -42 0 -49 38 -10 53 8 3 27 6
42 6 22 1 26 -2 21 -16z"/>
<path d="M6643 13424 c-16 -13 -16 -14 9 -8 23 5 29 2 38 -21 5 -14 10 -49 10
-76 0 -27 5 -49 10 -49 6 0 10 28 10 64 0 69 14 92 50 81 18 -6 20 -15 20 -76
0 -55 3 -69 15 -69 11 0 15 12 15 44 0 105 -25 140 -79 111 -17 -8 -32 -11
-35 -6 -10 16 -45 19 -63 5z"/>
<path d="M6910 13433 c-35 -13 -50 -37 -50 -80 0 -52 26 -83 70 -83 33 0 84
40 60 48 -7 3 -17 -3 -22 -12 -13 -23 -65 -21 -78 3 -18 36 -12 41 50 41 52 0
60 2 60 19 0 39 -54 77 -90 64z m52 -30 c29 -26 22 -33 -32 -33 -52 0 -60 8
-34 34 20 21 43 20 66 -1z"/>
<path d="M17640 13433 c-42 -15 -56 -96 -22 -126 23 -21 75 -22 92 -2 16 19 5
34 -12 17 -25 -25 -78 -8 -78 25 0 9 17 13 55 13 63 0 71 15 30 55 -24 25 -36
28 -65 18z m50 -28 c18 -21 9 -27 -36 -23 -36 3 -37 4 -20 21 21 21 40 22 56
2z"/>
<path d="M17796 13431 c-4 -6 -13 -8 -21 -4 -12 4 -15 -8 -15 -66 0 -41 4 -71
10 -71 6 0 10 20 10 44 0 58 8 76 32 76 11 0 18 5 16 12 -6 16 -25 21 -32 9z"/>
<path d="M5780 13350 c0 -47 4 -80 10 -80 6 0 10 33 10 80 0 47 -4 80 -10 80
-6 0 -10 -33 -10 -80z"/>
<path d="M6600 13350 c0 -97 17 -107 22 -12 4 72 1 92 -13 92 -5 0 -9 -36 -9
-80z"/>
<path d="M17400 13360 c0 -40 4 -70 10 -70 6 0 10 30 10 70 0 40 -4 70 -10 70
-6 0 -10 -30 -10 -70z"/>
<path d="M18080 13423 c0 -5 11 -37 24 -72 27 -67 26 -87 -6 -97 -13 -4 -17
-9 -10 -16 21 -21 46 11 79 97 18 49 31 90 29 92 -10 11 -24 -9 -36 -52 -7
-25 -16 -45 -20 -45 -3 0 -13 21 -21 47 -8 25 -20 48 -27 51 -6 2 -12 0 -12
-5z"/>
<path d="M18230 13420 c0 -5 7 -10 15 -10 8 0 15 5 15 10 0 6 -7 10 -15 10 -8
0 -15 -4 -15 -10z"/>
<path d="M18230 13305 c0 -8 7 -15 15 -15 8 0 15 7 15 15 0 8 -7 15 -15 15 -8
0 -15 -7 -15 -15z"/>
<path d="M5636 12064 c-13 -13 -16 -42 -16 -164 0 -122 3 -151 16 -164 23 -23
305 -23 328 0 23 23 23 305 0 328 -13 13 -42 16 -164 16 -122 0 -151 -3 -164
-16z m304 -164 l0 -140 -140 0 -140 0 0 140 0 140 140 0 140 0 0 -140z"/>
<path d="M6520 11900 c0 -82 3 -100 15 -100 11 0 15 12 15 45 l0 45 45 0 c25
0 45 5 45 10 0 6 -20 10 -45 10 -45 0 -45 0 -45 35 l0 35 55 0 c30 0 55 5 55
10 0 6 -30 10 -70 10 l-70 0 0 -100z"/>
<path d="M6690 11985 c0 -8 5 -15 10 -15 6 0 10 7 10 15 0 8 -4 15 -10 15 -5
0 -10 -7 -10 -15z"/>
<path d="M6750 11900 c0 -60 4 -100 10 -100 6 0 10 40 10 100 0 60 -4 100 -10
100 -6 0 -10 -40 -10 -100z"/>
<path d="M7050 11900 c0 -82 3 -100 15 -100 12 0 15 15 15 78 l0 77 51 -77
c29 -43 58 -78 65 -78 11 0 14 22 14 100 0 81 -3 100 -15 100 -11 0 -15 -17
-17 -72 l-3 -72 -49 72 c-27 40 -55 72 -63 72 -10 0 -13 -24 -13 -100z"/>
<path d="M12520 11900 c0 -82 3 -100 15 -100 11 0 15 12 15 45 l0 45 45 0 c25
0 45 5 45 10 0 6 -20 10 -45 10 -45 0 -45 0 -45 35 l0 35 55 0 c30 0 55 5 55
10 0 6 -30 10 -70 10 l-70 0 0 -100z"/>
<path d="M12850 11900 c0 -60 4 -100 10 -100 6 0 10 40 10 100 0 60 -4 100
-10 100 -6 0 -10 -40 -10 -100z"/>
<path d="M13000 11965 c0 -33 -2 -35 -20 -25 -28 15 -55 5 -68 -26 -16 -33
-15 -49 3 -85 14 -26 20 -29 60 -27 l45 1 0 99 c0 59 -4 98 -10 98 -5 0 -10
-16 -10 -35z m-12 -47 c13 -13 16 -56 6 -82 -7 -18 -49 -22 -59 -6 -11 18 -8
69 5 85 15 18 32 19 48 3z"/>
<path d="M13380 11991 c0 -6 15 -11 33 -13 l32 -3 3 -87 c4 -116 22 -114 22 2
l0 90 35 0 c19 0 35 5 35 10 0 6 -33 10 -80 10 -44 0 -80 -4 -80 -9z"/>
<path d="M16520 11900 c0 -82 3 -100 15 -100 11 0 15 11 15 39 0 38 0 38 45
43 55 7 75 22 75 59 0 44 -23 59 -91 59 l-59 0 0 -100z m114 64 c30 -29 13
-54 -43 -61 l-41 -6 0 42 c0 40 1 41 34 41 19 0 42 -7 50 -16z"/>
<path d="M16952 11988 c6 -18 28 -21 28 -4 0 9 -7 16 -16 16 -9 0 -14 -5 -12
-12z"/>
<path d="M17470 11900 c0 -82 3 -100 15 -100 12 0 15 15 15 78 l0 77 51 -77
c29 -43 58 -78 65 -78 11 0 14 22 14 100 0 81 -3 100 -15 100 -11 0 -15 -17
-17 -72 l-3 -72 -49 72 c-27 40 -55 72 -63 72 -10 0 -13 -24 -13 -100z"/>
<path d="M17320 11971 c0 -11 -5 -23 -10 -26 -7 -5 -8 -11 -1 -19 5 -6 11 -36
13 -66 3 -48 6 -55 26 -58 12 -2 22 1 22 7 0 6 -7 11 -15 11 -19 0 -22 106 -2
113 10 4 10 6 0 6 -7 1 -13 12 -13 26 0 14 -4 25 -10 25 -5 0 -10 -9 -10 -19z"/>
<path d="M6850 11943 c-42 -15 -56 -96 -22 -126 23 -21 75 -22 92 -2 16 19 5
34 -12 17 -25 -25 -78 -8 -78 25 0 9 17 13 55 13 63 0 71 15 30 55 -24 25 -36
28 -65 18z m50 -28 c18 -21 9 -27 -36 -23 -36 3 -37 4 -20 21 21 21 40 22 56
2z"/>
<path d="M7270 11932 c-14 -11 -22 -24 -18 -28 5 -4 17 1 27 10 23 21 54 18
59 -5 2 -12 -9 -19 -41 -28 -47 -11 -62 -34 -45 -65 10 -18 50 -21 79 -6 13 7
19 7 19 0 0 -5 5 -10 10 -10 12 0 13 109 2 127 -15 24 -66 26 -92 5z m68 -84
c-2 -18 -10 -23 -32 -23 -37 0 -46 22 -14 34 38 16 50 13 46 -11z"/>
<path d="M7451 11941 c-8 -5 -20 -7 -28 -4 -10 4 -13 -11 -13 -66 0 -41 4 -71
10 -71 6 0 10 25 10 55 0 44 4 56 20 65 31 17 40 4 40 -61 0 -46 3 -59 15 -59
11 0 15 13 15 54 0 35 5 58 15 66 26 22 45 -5 45 -66 0 -30 5 -54 10 -54 6 0
10 28 10 65 0 54 -3 66 -20 75 -14 8 -26 8 -41 -1 -16 -8 -28 -8 -46 0 -28 13
-25 13 -42 2z"/>
<path d="M7656 11926 c-32 -31 -34 -78 -6 -106 24 -24 72 -26 94 -4 22 21 9
40 -13 20 -32 -29 -71 -16 -71 25 0 5 23 9 50 9 42 0 50 3 50 18 0 27 -21 50
-52 57 -21 5 -33 1 -52 -19z m70 -13 c17 -17 16 -18 -20 -21 -45 -4 -54 2 -36
23 16 20 35 19 56 -2z"/>
<path d="M12706 11926 c-49 -48 -22 -126 42 -126 38 0 62 28 62 71 0 43 -16
66 -52 74 -21 5 -33 1 -52 -19z m68 -12 c19 -18 21 -65 4 -82 -7 -7 -22 -12
-35 -12 -39 0 -51 58 -20 98 13 16 32 15 51 -4z"/>
<path d="M13100 11943 c-42 -15 -56 -96 -22 -126 23 -21 75 -22 92 -2 16 19 5
34 -12 17 -25 -25 -78 -8 -78 25 0 9 17 13 55 13 63 0 71 15 30 55 -24 25 -36
28 -65 18z m50 -28 c18 -21 9 -27 -36 -23 -36 3 -37 4 -20 21 21 21 40 22 56
2z"/>
<path d="M13256 11941 c-4 -6 -13 -8 -21 -4 -12 4 -15 -8 -15 -66 0 -41 4 -71
10 -71 6 0 10 20 10 44 0 58 8 76 32 76 11 0 18 5 16 12 -6 16 -25 21 -32 9z"/>
<path d="M13731 11941 c-8 -5 -20 -7 -28 -4 -10 4 -13 -15 -13 -91 0 -57 4
-96 10 -96 6 0 10 13 10 28 0 26 3 28 34 24 26 -3 37 1 50 19 22 32 20 81 -4
107 -22 24 -37 27 -59 13z m43 -27 c29 -28 13 -94 -22 -94 -27 0 -42 20 -42
55 0 50 33 71 64 39z"/>
<path d="M13871 11937 c-42 -21 -47 -105 -8 -129 33 -21 109 5 92 32 -6 10
-10 9 -17 -4 -17 -30 -78 -14 -78 21 0 9 16 13 54 13 52 0 53 1 48 25 -4 25
-36 55 -57 55 -5 0 -21 -6 -34 -13z m57 -19 c21 -21 13 -28 -28 -28 -22 0 -40
4 -40 8 0 14 23 32 40 32 9 0 21 -5 28 -12z"/>
<path d="M16746 11941 c-4 -6 -13 -8 -21 -4 -12 4 -15 -8 -15 -66 0 -85 18
-96 22 -13 3 51 5 57 26 60 13 2 21 9 19 15 -5 15 -24 20 -31 8z"/>
<path d="M16816 11926 c-49 -48 -22 -126 42 -126 38 0 62 28 62 71 0 43 -16
66 -52 74 -21 5 -33 1 -52 -19z m68 -12 c19 -18 21 -65 4 -82 -7 -7 -22 -12
-35 -12 -39 0 -51 58 -20 98 13 16 32 15 51 -4z"/>
<path d="M17036 11929 c-30 -24 -35 -72 -10 -107 20 -29 74 -30 99 -2 16 17
16 20 2 20 -9 0 -19 -4 -22 -10 -10 -17 -54 -11 -64 9 -14 26 -5 31 51 31 41
0 48 3 48 19 0 20 -44 61 -65 61 -7 0 -24 -9 -39 -21z m58 -5 c30 -12 18 -34
-19 -34 -37 0 -43 8 -23 28 14 14 20 14 42 6z"/>
<path d="M17192 11933 c-20 -18 -25 -36 -23 -80 3 -52 76 -73 106 -31 11 16
12 24 4 27 -7 2 -16 -4 -21 -13 -11 -19 -39 -21 -56 -4 -17 17 -15 73 3 88 15
12 55 5 55 -11 0 -5 5 -9 10 -9 18 0 11 29 -9 40 -28 14 -46 13 -69 -7z"/>
<path d="M17690 11932 c-14 -11 -22 -24 -18 -28 5 -4 17 1 27 10 23 21 54 18
59 -5 2 -12 -9 -19 -41 -28 -47 -11 -62 -34 -45 -65 10 -18 50 -21 79 -6 13 7
19 7 19 0 0 -5 5 -10 10 -10 12 0 13 109 2 127 -15 24 -66 26 -92 5z m68 -84
c-2 -18 -10 -23 -32 -23 -37 0 -46 22 -14 34 38 16 50 13 46 -11z"/>
<path d="M17871 11941 c-8 -5 -20 -7 -28 -4 -10 4 -13 -11 -13 -66 0 -41 4
-71 10 -71 6 0 10 25 10 55 0 44 4 56 20 65 31 17 40 4 40 -61 0 -46 3 -59 15
-59 11 0 15 13 15 54 0 61 19 88 45 66 10 -8 15 -31 15 -66 0 -30 5 -54 10
-54 6 0 10 28 10 65 0 54 -3 66 -20 75 -14 8 -26 8 -41 -1 -16 -8 -28 -8 -46
0 -28 13 -25 13 -42 2z"/>
<path d="M18076 11926 c-32 -31 -34 -78 -6 -106 24 -24 72 -26 94 -4 22 21 9
40 -13 20 -32 -29 -71 -16 -71 25 0 5 23 9 50 9 42 0 50 3 50 18 0 27 -21 50
-52 57 -21 5 -33 1 -52 -19z m70 -13 c17 -17 16 -18 -20 -21 -45 -4 -54 2 -36
23 16 20 35 19 56 -2z"/>
<path d="M6690 11870 c0 -40 4 -70 10 -70 6 0 10 30 10 70 0 40 -4 70 -10 70
-6 0 -10 -30 -10 -70z"/>
<path d="M13540 11933 c0 -5 11 -37 24 -72 27 -67 26 -87 -6 -97 -13 -4 -17
-9 -10 -16 21 -21 46 11 79 97 18 49 31 90 29 92 -10 11 -24 -9 -36 -52 -7
-25 -16 -45 -20 -45 -3 0 -13 21 -21 47 -8 25 -20 48 -27 51 -6 2 -12 0 -12
-5z"/>
<path d="M16950 11850 c0 -53 -4 -90 -10 -90 -5 0 -10 -4 -10 -10 0 -18 29
-11 40 9 5 11 10 56 10 100 0 65 -3 81 -15 81 -12 0 -15 -17 -15 -90z"/>
<path d="M25161 10870 c-19 -16 -32 -33 -28 -37 4 -3 13 -1 19 5 23 23 28 11
28 -63 0 -60 3 -75 15 -75 12 0 15 18 15 100 0 55 -3 100 -7 100 -5 -1 -23
-14 -42 -30z"/>
<path d="M25304 10892 c-49 -33 -43 -171 8 -188 57 -18 96 37 85 118 -8 62
-54 96 -93 70z m56 -27 c13 -16 17 -88 6 -123 -6 -18 -14 -22 -34 -20 -31 4
-46 44 -36 98 10 57 38 77 64 45z"/>
<path d="M25446 10878 c-10 -14 -16 -44 -16 -78 0 -68 19 -100 60 -100 41 0
60 32 60 102 0 45 -5 63 -20 78 -27 27 -65 26 -84 -2z m74 -17 c5 -11 10 -38
10 -61 0 -50 -14 -80 -38 -80 -30 0 -42 21 -42 73 0 57 14 87 40 87 11 0 24
-9 30 -19z"/>
<path d="M22840 10790 c0 -82 3 -100 15 -100 11 0 15 12 15 46 0 43 1 45 27
42 19 -2 37 -17 58 -45 27 -38 55 -55 55 -34 0 9 -39 62 -53 72 -4 3 3 13 17
23 30 19 34 56 10 80 -11 11 -35 16 -80 16 l-64 0 0 -100z m114 74 c9 -3 16
-16 16 -29 0 -26 -17 -35 -66 -35 -32 0 -34 2 -34 35 0 33 2 35 34 35 19 0 41
-3 50 -6z"/>
<path d="M26734 10882 c-49 -33 -43 -171 8 -188 57 -18 96 37 85 118 -8 62
-54 96 -93 70z m56 -27 c13 -16 17 -88 6 -123 -6 -18 -14 -22 -34 -20 -31 4
-46 44 -36 98 10 57 38 77 64 45z"/>
<path d="M27034 10869 c-14 -15 -19 -36 -19 -79 0 -71 22 -103 69 -98 38 4 56
35 56 99 0 82 -61 127 -106 78z m65 -8 c18 -11 25 -89 12 -123 -11 -30 -38
-37 -59 -16 -7 7 -12 37 -12 68 0 70 21 95 59 71z"/>
<path d="M27427 10883 c-4 -3 -7 -14 -7 -24 0 -10 -7 -22 -16 -27 -15 -8 -15
-10 0 -15 12 -5 16 -20 16 -67 0 -33 4 -60 10 -60 6 0 10 28 10 64 0 53 3 65
18 69 16 4 16 5 0 6 -22 1 -25 41 -4 41 8 0 18 5 21 10 7 11 -38 14 -48 3z"/>
<path d="M27580 10870 c-15 -15 -20 -33 -20 -78 0 -69 19 -102 59 -102 43 0
65 32 65 93 1 92 -53 138 -104 87z m68 -12 c7 -7 12 -37 12 -68 0 -58 -11 -80
-42 -80 -34 0 -50 76 -28 134 10 28 38 34 58 14z"/>
<path d="M23063 10825 c-27 -19 -36 -56 -22 -92 12 -33 26 -43 61 -43 61 0 87
91 37 133 -26 21 -48 22 -76 2z m66 -19 c17 -20 10 -77 -11 -90 -26 -16 -52 4
-56 43 -4 36 12 61 38 61 10 0 23 -6 29 -14z"/>
<path d="M23418 10829 c-27 -15 -23 -54 7 -67 14 -7 32 -12 39 -12 15 0 28
-24 19 -34 -10 -10 -51 -7 -58 4 -3 6 -13 10 -22 10 -14 0 -14 -3 2 -20 38
-42 127 -8 99 37 -6 9 -26 22 -44 28 -19 6 -36 17 -38 23 -6 18 24 25 48 12
28 -15 41 -3 16 16 -23 16 -44 17 -68 3z"/>
<path d="M23661 10831 c-8 -5 -20 -7 -28 -4 -10 4 -13 -15 -13 -91 0 -57 4
-96 10 -96 6 0 10 13 10 30 0 28 2 29 30 23 43 -8 70 19 70 69 0 57 -41 93
-79 69z m49 -31 c26 -48 -9 -108 -47 -84 -37 23 -23 104 17 104 11 0 24 -9 30
-20z"/>
<path d="M23810 10833 c-42 -15 -56 -96 -22 -126 23 -21 75 -22 92 -2 16 19 5
34 -12 17 -25 -25 -78 -8 -78 25 0 9 17 13 55 13 63 0 71 15 30 55 -24 25 -36
28 -65 18z m50 -28 c18 -21 9 -27 -36 -23 -36 3 -37 4 -20 21 21 21 40 22 56
2z"/>
<path d="M23966 10831 c-4 -6 -13 -8 -21 -4 -12 4 -15 -8 -15 -66 0 -41 4 -71
10 -71 6 0 10 20 10 44 0 58 8 76 32 76 11 0 18 5 16 12 -6 16 -25 21 -32 9z"/>
<path d="M24141 10831 c-8 -5 -20 -7 -28 -4 -10 4 -13 -15 -13 -91 0 -57 4
-96 10 -96 6 0 10 13 10 29 0 28 2 29 33 24 52 -8 74 22 68 92 -2 21 -36 55
-55 55 -6 0 -17 -4 -25 -9z m47 -23 c17 -17 15 -73 -3 -88 -40 -33 -82 27 -51
74 18 28 35 33 54 14z"/>
<path d="M24283 10830 c-13 -5 -23 -16 -23 -25 0 -20 10 -19 25 1 8 12 20 15
38 10 41 -10 33 -34 -14 -43 -49 -10 -70 -34 -53 -60 13 -22 60 -29 80 -12 10
8 14 8 14 0 0 -6 6 -11 13 -11 10 0 12 15 9 63 -5 81 -29 101 -89 77z m67 -84
c0 -20 -26 -38 -51 -34 -31 4 -35 26 -7 37 34 14 58 13 58 -3z"/>
<path d="M24432 10823 c-33 -27 -38 -73 -11 -107 18 -23 27 -27 50 -22 24 4
29 2 29 -14 0 -26 -36 -35 -65 -16 -22 14 -25 14 -25 2 0 -36 69 -47 100 -16
17 17 20 33 20 99 0 69 -2 80 -17 80 -10 -1 -27 2 -39 6 -13 4 -28 0 -42 -12z
m63 -27 c20 -30 11 -73 -16 -81 -28 -9 -49 12 -49 49 0 56 38 74 65 32z"/>
<path d="M24586 10819 c-30 -24 -35 -72 -10 -107 20 -29 74 -30 99 -2 16 17
16 20 2 20 -9 0 -19 -4 -22 -10 -10 -17 -54 -11 -64 9 -14 26 -5 31 51 31 41
0 48 3 48 19 0 20 -44 61 -65 61 -7 0 -24 -9 -39 -21z m58 -5 c30 -12 18 -34
-19 -34 -37 0 -43 8 -23 28 14 14 20 14 42 6z"/>
<path d="M27273 10825 c-27 -19 -36 -56 -22 -92 12 -33 26 -43 61 -43 61 0 87
91 37 133 -26 21 -48 22 -76 2z m66 -19 c17 -20 10 -77 -11 -90 -26 -16 -52 4
-56 43 -4 36 12 61 38 61 10 0 23 -6 29 -14z"/>
<path d="M23204 10760 c11 -38 27 -70 33 -70 7 0 18 20 24 45 6 25 15 45 19
45 4 0 13 -20 19 -45 6 -25 17 -45 24 -45 6 0 22 32 33 70 16 52 18 70 9 70
-7 0 -18 -23 -25 -51 -14 -56 -24 -52 -35 14 -10 53 -34 45 -53 -18 l-15 -50
-15 53 c-8 28 -20 52 -27 52 -9 0 -7 -19 9 -70z"/>
<path d="M24730 10820 c0 -5 7 -10 15 -10 8 0 15 5 15 10 0 6 -7 10 -15 10 -8
0 -15 -4 -15 -10z"/>
<path d="M25763 10783 l47 -48 47 48 48 47 -95 0 -95 0 48 -47z"/>
<path d="M26850 10760 c0 -6 32 -10 75 -10 43 0 75 4 75 10 0 6 -32 10 -75 10
-43 0 -75 -4 -75 -10z"/>
<path d="M24730 10705 c0 -8 7 -15 15 -15 8 0 15 7 15 15 0 8 -7 15 -15 15 -8
0 -15 -7 -15 -15z"/>
<path d="M29336 744 c-13 -13 -16 -45 -16 -197 l0 -181 38 37 38 37 146 0
c120 0 149 3 162 16 13 12 16 40 16 144 0 104 -3 132 -16 144 -23 24 -345 24
-368 0z m304 -84 c0 -19 -7 -20 -120 -20 -113 0 -120 1 -120 20 0 19 7 20 120
20 113 0 120 -1 120 -20z m0 -60 c0 -19 -7 -20 -120 -20 -113 0 -120 1 -120
20 0 19 7 20 120 20 113 0 120 -1 120 -20z m-80 -60 c0 -18 -7 -20 -80 -20
-73 0 -80 2 -80 20 0 18 7 20 80 20 73 0 80 -2 80 -20z"/>
</g>
</svg>
